<svg width="36" height="24" viewBox="0 0 36 24" fill="none" xmlns="http://www.w3.org/2000/svg">
<path d="M18 0C9.81818 0 2.83091 4.976 0 12C2.83091 19.024 9.81818 24 18 24C26.1818 24 33.1691 19.024 36 12C33.1691 4.976 26.1818 0 18 0ZM18 20C13.4836 20 9.81818 16.416 9.81818 12C9.81818 7.584 13.4836 4 18 4C22.5164 4 26.1818 7.584 26.1818 12C26.1818 16.416 22.5164 20 18 20ZM18 7.2C15.2836 7.2 13.0909 9.344 13.0909 12C13.0909 14.656 15.2836 16.8 18 16.8C20.7164 16.8 22.9091 14.656 22.9091 12C22.9091 9.344 20.7164 7.2 18 7.2Z" fill="#474747"/>
</svg>
