<svg width="42" height="42" viewBox="0 0 42 42" fill="none" xmlns="http://www.w3.org/2000/svg">
<path d="M36.2425 29.2425L32.0075 25.0075C31.8448 24.8435 31.6513 24.7133 31.438 24.6244C31.2248 24.5356 30.996 24.4899 30.765 24.4899C30.534 24.4899 30.3052 24.5356 30.092 24.6244C29.8787 24.7133 29.6852 24.8435 29.5225 25.0075L23.2575 31.2725C23.0953 31.436 22.967 31.6299 22.8799 31.8432C22.7928 32.0564 22.7487 32.2847 22.75 32.515V36.75C22.75 37.2141 22.9344 37.6592 23.2626 37.9874C23.5908 38.3156 24.0359 38.5 24.5 38.5H28.735C28.9653 38.5013 29.1936 38.4572 29.4068 38.3701C29.6201 38.283 29.814 38.1547 29.9775 37.9925L36.2425 31.7275C36.4065 31.5648 36.5367 31.3713 36.6256 31.158C36.7144 30.9448 36.7601 30.716 36.7601 30.485C36.7601 30.254 36.7144 30.0252 36.6256 29.812C36.5367 29.5987 36.4065 29.4052 36.2425 29.2425ZM28 35H26.25V33.25L30.765 28.735L32.515 30.485L28 35ZM17.5 35H10.5C10.0359 35 9.59075 34.8156 9.26256 34.4874C8.93437 34.1593 8.75 33.7141 8.75 33.25V8.75C8.75 8.28587 8.93437 7.84075 9.26256 7.51256C9.59075 7.18437 10.0359 7 10.5 7H19.25V12.25C19.25 13.6424 19.8031 14.9777 20.7877 15.9623C21.7723 16.9469 23.1076 17.5 24.5 17.5H29.75V19.25C29.75 19.7141 29.9344 20.1592 30.2626 20.4874C30.5907 20.8156 31.0359 21 31.5 21C31.9641 21 32.4093 20.8156 32.7374 20.4874C33.0656 20.1592 33.25 19.7141 33.25 19.25V15.645C33.2318 15.4842 33.1966 15.3259 33.145 15.1725V15.015C33.0609 14.8351 32.9486 14.6697 32.8125 14.525L22.3125 4.025C22.1678 3.88888 22.0024 3.77664 21.8225 3.6925C21.7703 3.68508 21.7172 3.68508 21.665 3.6925L21.105 3.5H10.5C9.10761 3.5 7.77226 4.05312 6.78769 5.03769C5.80312 6.02226 5.25 7.35761 5.25 8.75V33.25C5.25 34.6424 5.80312 35.9777 6.78769 36.9623C7.77226 37.9469 9.10761 38.5 10.5 38.5H17.5C17.9641 38.5 18.4092 38.3156 18.7374 37.9874C19.0656 37.6592 19.25 37.2141 19.25 36.75C19.25 36.2859 19.0656 35.8408 18.7374 35.5126C18.4092 35.1844 17.9641 35 17.5 35ZM22.75 9.4675L27.2825 14H24.5C24.0359 14 23.5908 13.8156 23.2626 13.4874C22.9344 13.1592 22.75 12.7141 22.75 12.25V9.4675ZM14 24.5H24.5C24.9641 24.5 25.4092 24.3156 25.7374 23.9874C26.0656 23.6592 26.25 23.2141 26.25 22.75C26.25 22.2859 26.0656 21.8408 25.7374 21.5126C25.4092 21.1844 24.9641 21 24.5 21H14C13.5359 21 13.0908 21.1844 12.7626 21.5126C12.4344 21.8408 12.25 22.2859 12.25 22.75C12.25 23.2141 12.4344 23.6592 12.7626 23.9874C13.0908 24.3156 13.5359 24.5 14 24.5ZM14 17.5H15.75C16.2141 17.5 16.6592 17.3156 16.9874 16.9874C17.3156 16.6592 17.5 16.2141 17.5 15.75C17.5 15.2859 17.3156 14.8408 16.9874 14.5126C16.6592 14.1844 16.2141 14 15.75 14H14C13.5359 14 13.0908 14.1844 12.7626 14.5126C12.4344 14.8408 12.25 15.2859 12.25 15.75C12.25 16.2141 12.4344 16.6592 12.7626 16.9874C13.0908 17.3156 13.5359 17.5 14 17.5ZM17.5 28H14C13.5359 28 13.0908 28.1844 12.7626 28.5126C12.4344 28.8407 12.25 29.2859 12.25 29.75C12.25 30.2141 12.4344 30.6593 12.7626 30.9874C13.0908 31.3156 13.5359 31.5 14 31.5H17.5C17.9641 31.5 18.4092 31.3156 18.7374 30.9874C19.0656 30.6593 19.25 30.2141 19.25 29.75C19.25 29.2859 19.0656 28.8407 18.7374 28.5126C18.4092 28.1844 17.9641 28 17.5 28Z" fill="black"/>
</svg>
