<svg width="36" height="36" viewBox="0 0 36 36" fill="none" xmlns="http://www.w3.org/2000/svg">
<path d="M31.4167 0.75H4.58333C3.56667 0.75 2.59165 1.15387 1.87276 1.87276C1.15387 2.59165 0.75 3.56667 0.75 4.58333V31.4167C0.75 32.4333 1.15387 33.4084 1.87276 34.1272C2.59165 34.8461 3.56667 35.25 4.58333 35.25H31.4167C32.4333 35.25 33.4084 34.8461 34.1272 34.1272C34.8461 33.4084 35.25 32.4333 35.25 31.4167V4.58333C35.25 3.56667 34.8461 2.59165 34.1272 1.87276C33.4084 1.15387 32.4333 0.75 31.4167 0.75ZM24.9 27.5833L18 20.6833L11.1 27.5833L8.41667 24.9L15.3167 18L8.41667 11.1L11.1 8.41667L18 15.3167L24.9 8.41667L27.5833 11.1L20.6833 18L27.5833 24.9L24.9 27.5833Z" fill="black"/>
</svg>
