<svg width="49" height="47" viewBox="0 0 49 47" fill="none" xmlns="http://www.w3.org/2000/svg">
<g id="reading-book 1" clip-path="url(#clip0_1078_4507)" filter="url(#filter0_i_1078_4507)">
<g id="Group">
<path id="Vector" d="M24.4135 15.4749C28.8903 15.4749 32.5194 12.0107 32.5194 7.73743C32.5194 3.46417 28.8903 0 24.4135 0C19.9367 0 16.3076 3.46417 16.3076 7.73743C16.3076 12.0107 19.9367 15.4749 24.4135 15.4749Z" fill="#3D8CD6"/>
<path id="Vector_2" d="M30.3699 16.5234C28.6537 17.5873 26.608 18.2061 24.4136 18.2061C22.2192 18.2061 20.1736 17.5873 18.4573 16.5234C16.5601 17.2155 14.801 18.2366 13.2715 19.547L24.4136 23.5355L35.5558 19.547C34.0263 18.2366 32.2672 17.2154 30.3699 16.5234Z" fill="#3D8CD6"/>
<path id="Vector_3" d="M41.5784 28.2188H40.6248C39.8348 28.2188 39.1943 28.8301 39.1943 29.5842V33.2253C39.1943 33.9794 39.8348 34.5908 40.6248 34.5908H41.5784C43.4218 34.5908 44.9161 33.1643 44.9161 31.4048C44.9161 29.6452 43.4218 28.2188 41.5784 28.2188Z" fill="#3D8CD6"/>
<path id="Vector_4" d="M8.34027 21.3253C7.95463 21.5804 7.72461 21.9997 7.72461 22.4476V25.4875H8.20143C10.5677 25.4875 12.4928 27.3251 12.4928 29.5838V33.2249C12.4928 35.4836 10.5677 37.3212 8.20143 37.3212H7.72461V40.1982C7.72461 40.7674 8.09452 41.2769 8.65278 41.4767L22.9827 46.6061V25.939L9.65734 21.1691C9.218 21.0117 8.72583 21.07 8.34027 21.3253Z" fill="#3D8CD6"/>
<path id="Vector_5" d="M36.3337 33.2249V29.5838C36.3337 27.3251 38.2588 25.4875 40.6251 25.4875H41.1019V22.4476C41.1019 21.9997 40.8719 21.5804 40.4862 21.3253C40.1006 21.07 39.6083 21.0117 39.1692 21.1691L25.8438 25.939V46.6061L40.1737 41.4767C40.732 41.2769 41.1019 40.7674 41.1019 40.1982V37.3212H40.6251C38.2588 37.3212 36.3337 35.4836 36.3337 33.2249Z" fill="#3D8CD6"/>
<path id="Vector_6" d="M9.63195 33.2253V29.5842C9.63195 28.8301 8.99149 28.2188 8.2015 28.2188H7.24787C5.4045 28.2188 3.91016 29.6452 3.91016 31.4048C3.91016 33.1643 5.4045 34.5908 7.24787 34.5908H8.2015C8.99149 34.5908 9.63195 33.9794 9.63195 33.2253Z" fill="#3D8CD6"/>
</g>
</g>
<defs>
<filter id="filter0_i_1078_4507" x="0" y="0" width="48.8262" height="49.5646" filterUnits="userSpaceOnUse" color-interpolation-filters="sRGB">
<feFlood flood-opacity="0" result="BackgroundImageFix"/>
<feBlend mode="normal" in="SourceGraphic" in2="BackgroundImageFix" result="shape"/>
<feColorMatrix in="SourceAlpha" type="matrix" values="0 0 0 0 0 0 0 0 0 0 0 0 0 0 0 0 0 0 127 0" result="hardAlpha"/>
<feOffset dy="2.95915"/>
<feGaussianBlur stdDeviation="1.47958"/>
<feComposite in2="hardAlpha" operator="arithmetic" k2="-1" k3="1"/>
<feColorMatrix type="matrix" values="0 0 0 0 0 0 0 0 0 0 0 0 0 0 0 0 0 0 0.25 0"/>
<feBlend mode="normal" in2="shape" result="effect1_innerShadow_1078_4507"/>
</filter>
<clipPath id="clip0_1078_4507">
<rect width="48.826" height="46.6067" fill="white"/>
</clipPath>
</defs>
</svg>
