<svg width="51" height="47" viewBox="0 0 51 47" fill="none" xmlns="http://www.w3.org/2000/svg">
<g id="event 1" clip-path="url(#clip0_1078_4520)" filter="url(#filter0_i_1078_4520)">
<g id="Group">
<g id="Group_2">
<g id="Group_3">
<path id="Vector" d="M10.9227 7.97215H14.8942C15.077 7.97215 15.2252 7.83482 15.2252 7.66556V0.306594C15.2252 0.137216 15.077 0 14.8942 0H10.9227C10.7399 0 10.5918 0.137334 10.5918 0.306594V7.66556C10.5918 7.83494 10.7399 7.97215 10.9227 7.97215Z" fill="#EE2BF6"/>
<path id="Vector_2" d="M46.5991 5.51953H41.701V7.48187C41.701 8.6471 40.7743 9.8122 39.5166 9.8122H35.6114C34.2637 9.7237 33.1917 8.73044 33.0961 7.48187V5.51953H17.2101V7.48187C17.1146 8.73044 16.0425 9.7237 14.6948 9.8122H10.7895C9.53176 9.8122 8.60512 8.64698 8.60512 7.48187V5.51953H3.70697C2.0147 5.55298 0.661729 6.83371 0.662109 8.40189V15.9448H49.6439V8.40189C49.6444 6.83371 48.2914 5.55298 46.5991 5.51953Z" fill="#EE2BF6"/>
<path id="Vector_3" d="M35.413 7.97215H39.3845C39.5673 7.97215 39.7154 7.83482 39.7154 7.66556V0.306594C39.7154 0.137216 39.5672 0 39.3845 0H35.413C35.2301 0 35.082 0.137334 35.082 0.306594V7.66556C35.082 7.83494 35.2301 7.97215 35.413 7.97215Z" fill="#EE2BF6"/>
<path id="Vector_4" d="M20.1894 34.2198L19.2628 39.187L24.0286 36.8567L24.4919 36.734L24.9552 36.8567L29.721 39.187L28.7943 34.2198C28.759 33.9315 28.8549 33.6426 29.0591 33.4225L32.9645 29.9884L27.603 29.2525C27.2896 29.2062 27.0191 29.0239 26.8749 28.7619L24.492 24.2852L22.1091 28.7619C21.9649 29.0239 21.6944 29.2062 21.381 29.2525L16.0195 29.9884L19.9249 33.4225C20.1289 33.6425 20.2248 33.9314 20.1894 34.2198Z" fill="#EE2BF6"/>
<path id="Vector_5" d="M0.662109 43.8481C0.698091 45.382 2.05081 46.6081 3.70697 46.6077H46.5991C48.2552 46.6081 49.6079 45.382 49.644 43.8481V17.7852H0.662109V43.8481ZM12.9738 29.0689C13.0795 28.7339 13.3934 28.4915 13.7681 28.4557L20.5858 27.4746L23.6306 21.7714C23.9042 21.3311 24.5113 21.1796 24.9865 21.4331C25.1383 21.5141 25.2642 21.6307 25.3516 21.7714L28.3965 27.4746L35.2142 28.4557C35.5888 28.4915 35.9029 28.734 36.0085 29.0689C36.1286 29.397 36.0242 29.7597 35.7437 29.9888L30.8455 34.4042L32.037 40.7206C32.0829 41.0524 31.9308 41.3812 31.6398 41.5791C31.4658 41.6948 31.2582 41.7589 31.044 41.763C30.8785 41.7776 30.713 41.7338 30.5807 41.6403L24.4911 38.6967L18.4015 41.6403C18.0696 41.8277 17.6467 41.8033 17.3425 41.5791C17.0515 41.3811 16.8995 41.0523 16.9453 40.7206L18.1368 34.4042L13.2386 29.9888C12.9581 29.7597 12.8537 29.3969 12.9738 29.0689Z" fill="#EE2BF6"/>
</g>
</g>
</g>
</g>
<defs>
<filter id="filter0_i_1078_4520" x="0" y="0" width="50.3057" height="49.5646" filterUnits="userSpaceOnUse" color-interpolation-filters="sRGB">
<feFlood flood-opacity="0" result="BackgroundImageFix"/>
<feBlend mode="normal" in="SourceGraphic" in2="BackgroundImageFix" result="shape"/>
<feColorMatrix in="SourceAlpha" type="matrix" values="0 0 0 0 0 0 0 0 0 0 0 0 0 0 0 0 0 0 127 0" result="hardAlpha"/>
<feOffset dy="2.95915"/>
<feGaussianBlur stdDeviation="1.47958"/>
<feComposite in2="hardAlpha" operator="arithmetic" k2="-1" k3="1"/>
<feColorMatrix type="matrix" values="0 0 0 0 0 0 0 0 0 0 0 0 0 0 0 0 0 0 0.25 0"/>
<feBlend mode="normal" in2="shape" result="effect1_innerShadow_1078_4520"/>
</filter>
<clipPath id="clip0_1078_4520">
<rect width="50.3056" height="46.6067" fill="white"/>
</clipPath>
</defs>
</svg>
