<svg width="55" height="57" viewBox="0 0 55 57" fill="none" xmlns="http://www.w3.org/2000/svg">
<g id="teacher-at-the-blackboard 1" clip-path="url(#clip0_1078_3273)" filter="url(#filter0_i_1078_3273)">
<g id="Group">
<path id="Vector" d="M29.9776 21.6517C30.3048 21.6517 30.6202 21.7057 30.924 21.7958L36.5913 14.6613C36.9535 14.2052 37.6254 14.1212 38.0636 14.5052C38.4901 14.8713 38.5485 15.5253 38.1921 15.9693L32.5892 23.0258C32.9689 23.5659 33.1968 24.232 33.1968 24.952C33.1968 26.2901 32.4139 27.4482 31.298 27.9642H53.2833C54.0896 27.9642 54.744 27.2922 54.744 26.4641V7.47276C54.744 6.6447 54.0896 5.97266 53.2833 5.97266H25.3561C24.5499 5.97266 23.8955 6.6447 23.8955 7.47276V19.9416L25.2159 21.6577H29.9776V21.6517Z" fill="#00983D"/>
<path id="Vector_2" d="M11.7611 13.4568C15.0652 13.4568 17.7438 10.7059 17.7438 7.31239C17.7438 3.91892 15.0652 1.16797 11.7611 1.16797C8.45688 1.16797 5.77832 3.91892 5.77832 7.31239C5.77832 10.7059 8.45688 13.4568 11.7611 13.4568Z" fill="#00983D"/>
<g id="Group_2">
<path id="Vector_3" d="M17.8956 53.5584C17.8956 54.3865 17.2412 55.0585 16.435 55.0585H13.9811C13.1749 55.0585 12.5205 54.3865 12.5205 53.5584V40.9816C12.5205 40.5375 12.1699 40.1775 11.7376 40.1775C11.3053 40.1775 10.9547 40.5375 10.9547 40.9816V53.4984C10.9547 54.3565 10.2711 55.0585 9.43565 55.0585H7.03438C6.22812 55.0585 5.57375 54.3865 5.57375 53.5584L5.56207 23.1963C5.56207 22.7883 5.24073 22.4523 4.8376 22.4523C4.44031 22.4523 4.11313 22.7824 4.11313 23.1963V34.8731C4.11313 35.7012 3.45877 36.3732 2.6525 36.3732H1.46063C0.654361 36.3732 0 35.7012 0 34.8731V18.864C0 16.9619 1.50152 15.4258 3.34776 15.4258H16.6512C18.0767 15.4258 19.4263 16.0978 20.3144 17.2439L23.89 21.8762L24.6436 22.8543C24.6436 22.8543 28.0323 22.8543 29.9837 22.8603C30.79 22.8603 31.4443 23.5323 31.4443 24.3604V25.5545C31.4443 26.3825 30.79 27.0546 29.9837 27.0546H23.6622C23.037 27.0546 22.4469 26.7606 22.0613 26.2565L19.3971 22.7402C19.2628 22.5602 19.0466 22.4522 18.8246 22.4522H18.6434C18.2462 22.4522 17.919 22.7822 17.919 23.1962L17.8956 53.5584Z" fill="#00983D"/>
</g>
</g>
</g>
<defs>
<filter id="filter0_i_1078_3273" x="0" y="0" width="54.7441" height="59.1818" filterUnits="userSpaceOnUse" color-interpolation-filters="sRGB">
<feFlood flood-opacity="0" result="BackgroundImageFix"/>
<feBlend mode="normal" in="SourceGraphic" in2="BackgroundImageFix" result="shape"/>
<feColorMatrix in="SourceAlpha" type="matrix" values="0 0 0 0 0 0 0 0 0 0 0 0 0 0 0 0 0 0 127 0" result="hardAlpha"/>
<feOffset dy="2.95915"/>
<feGaussianBlur stdDeviation="1.47958"/>
<feComposite in2="hardAlpha" operator="arithmetic" k2="-1" k3="1"/>
<feColorMatrix type="matrix" values="0 0 0 0 0 0 0 0 0 0 0 0 0 0 0 0 0 0 0.25 0"/>
<feBlend mode="normal" in2="shape" result="effect1_innerShadow_1078_3273"/>
</filter>
<clipPath id="clip0_1078_3273">
<rect width="54.7443" height="56.2239" fill="white"/>
</clipPath>
</defs>
</svg>
