<svg width="28" height="31" viewBox="0 0 28 31" fill="none" xmlns="http://www.w3.org/2000/svg">
<path d="M5.57813 14.4063C5.57813 10.2265 5.57812 8.13653 6.87073 6.8378C8.16486 5.53906 10.2456 5.53906 14.4101 5.53906H18.8261C22.9892 5.53906 25.0699 5.53906 26.364 6.8378C27.6582 8.13653 27.6582 10.2265 27.6582 14.4063V21.797C27.6582 25.9769 27.6582 28.0668 26.364 29.3656C25.0714 30.6643 22.9892 30.6643 18.8261 30.6643H14.4101C10.2456 30.6643 8.16486 30.6643 6.87073 29.3656C5.57812 28.0668 5.57813 25.9769 5.57813 21.797V14.4063Z" fill="#2D9CDB"/>
<path opacity="0.5" d="M1.85566 1.79707C0.0585936 3.59261 0.0585938 6.48448 0.0585938 12.2667V15.3334C0.0585938 21.1156 0.0585936 24.0074 1.85566 25.803C2.80173 26.7506 4.05293 27.1983 5.873 27.4099C5.5786 26.1219 5.5786 24.3494 5.5786 21.7979V14.4088C5.5786 10.2289 5.5786 8.13895 6.8712 6.84021C8.16534 5.54148 10.2461 5.54147 14.4106 5.54147H18.8266C21.3597 5.54147 23.12 5.54147 24.4049 5.83281C24.1933 4.00354 23.7456 2.74774 22.7949 1.79707C20.9994 -1.82788e-07 18.1075 0 12.3253 0C6.54307 0 3.6512 -1.82788e-07 1.85566 1.79707Z" fill="#2D9CDB"/>
</svg>
