<svg width="24" height="24" viewBox="0 0 24 24" fill="none" xmlns="http://www.w3.org/2000/svg">
<g id="ic:round-navigate-next">
<path id="Vector" d="M14.69 17.2883C14.7827 17.1958 14.8562 17.0859 14.9064 16.9649C14.9566 16.8439 14.9824 16.7142 14.9824 16.5833C14.9824 16.4523 14.9566 16.3226 14.9064 16.2016C14.8562 16.0807 14.7827 15.9708 14.69 15.8783L10.81 11.9983L14.69 8.11827C14.877 7.93129 14.982 7.6777 14.982 7.41327C14.982 7.14884 14.877 6.89525 14.69 6.70827C14.503 6.52129 14.2494 6.41625 13.985 6.41625C13.7206 6.41625 13.467 6.52129 13.28 6.70827L8.68998 11.2983C8.59727 11.3908 8.52373 11.5007 8.47355 11.6216C8.42336 11.7426 8.39753 11.8723 8.39753 12.0033C8.39753 12.1342 8.42336 12.2639 8.47355 12.3849C8.52373 12.5059 8.59727 12.6158 8.68998 12.7083L13.28 17.2983C13.66 17.6783 14.3 17.6783 14.69 17.2883Z" fill="#0066BC"/>
</g>
</svg>
