<svg width="22" height="21" viewBox="0 0 22 21" fill="none" xmlns="http://www.w3.org/2000/svg">
<g id="ArrowRise-s">
<path id="Vector 647 (Stroke)" fill-rule="evenodd" clip-rule="evenodd" d="M10.5242 13.4993L3.48932 15.5391L5.24032 8.42678L7.42468 10.5238L10.9482 6.85343C11.0678 6.72883 11.2331 6.65839 11.4058 6.65839C11.5785 6.65839 11.7438 6.72883 11.8634 6.85343L14.4506 9.54843L18.2557 5.58476C18.4983 5.33204 18.8999 5.32384 19.1526 5.56646C19.4053 5.80908 19.4135 6.21063 19.1709 6.46336L14.9082 10.9037C14.7886 11.0283 14.6233 11.0987 14.4506 11.0987C14.2779 11.0987 14.1126 11.0283 13.993 10.9037L11.4058 8.20869L8.33988 11.4024L10.5242 13.4993Z" fill="#CE1126"/>
</g>
</svg>
