<svg width="32" height="32" viewBox="0 0 32 32" fill="none" xmlns="http://www.w3.org/2000/svg">
<path fill-rule="evenodd" clip-rule="evenodd" d="M21.8812 3.69279L21.8825 4.69229C25.5554 4.98015 27.9815 7.48289 27.9855 11.321L28 22.5553C28.0052 26.7399 25.3763 29.3146 21.1624 29.3213L10.8692 29.3346C6.68159 29.3399 4.01976 26.7039 4.01449 22.5074L4.00001 11.4049C3.99474 7.54153 6.33537 5.04545 10.0082 4.70828L10.0069 3.70878C10.0056 3.12241 10.44 2.6813 11.0193 2.6813C11.5985 2.67997 12.0329 3.11975 12.0342 3.70612L12.0355 4.63898L19.8552 4.62832L19.8539 3.69546C19.8525 3.10908 20.287 2.6693 20.8662 2.66797C21.4323 2.66664 21.8799 3.10642 21.8812 3.69279ZM6.02864 11.8167L25.9595 11.7901V11.3236C25.9029 8.45841 24.4653 6.95516 21.8851 6.73127L21.8864 7.75742C21.8864 8.33047 21.4402 8.78491 20.8741 8.78491C20.2949 8.78624 19.8591 8.33314 19.8591 7.76009L19.8578 6.68063L12.0382 6.69129L12.0395 7.76942C12.0395 8.3438 11.6064 8.7969 11.0272 8.7969C10.4479 8.79824 10.0122 8.34646 10.0122 7.77208L10.0109 6.74593C7.44381 7.00313 6.02338 8.51171 6.02732 11.4023L6.02864 11.8167ZM20.3199 17.8737V17.8884C20.333 18.5014 20.8333 18.9665 21.4402 18.9531C22.0326 18.9385 22.5052 18.4307 22.492 17.8177C22.4644 17.2313 21.9891 16.7529 21.398 16.7543C20.7925 16.7676 20.3186 17.2607 20.3199 17.8737ZM21.4073 23.8574C20.8017 23.844 20.3133 23.339 20.312 22.7259C20.2988 22.1129 20.7846 21.6052 21.3901 21.5905H21.4033C22.022 21.5905 22.5236 22.0956 22.5236 22.7219C22.5249 23.3483 22.0247 23.856 21.4073 23.8574ZM14.8962 17.895C14.9225 18.508 15.4241 18.9865 16.0296 18.9598C16.622 18.9318 17.0946 18.4254 17.0683 17.8124C17.0538 17.2127 16.5667 16.7463 15.9743 16.7476C15.3688 16.7742 14.8948 17.282 14.8962 17.895ZM16.0349 23.7974C15.4293 23.824 14.9291 23.3456 14.9014 22.7326C14.9014 22.1196 15.374 21.6132 15.9796 21.5852C16.572 21.5838 17.0604 22.0503 17.0735 22.6486C17.1012 23.263 16.6273 23.7694 16.0349 23.7974ZM9.47244 17.9417C9.49877 18.5547 10.0003 19.0344 10.6059 19.0065C11.1983 18.9798 11.6709 18.4721 11.6432 17.859C11.6301 17.2593 11.143 16.7929 10.5493 16.7942C9.94373 16.8209 9.47112 17.3286 9.47244 17.9417ZM10.6112 23.8041C10.0056 23.832 9.50535 23.3523 9.47771 22.7393C9.47639 22.1262 9.95031 21.6185 10.5559 21.5918C11.1483 21.5905 11.6367 22.0569 11.6498 22.6566C11.6775 23.2697 11.2049 23.7774 10.6112 23.8041Z" fill="#0066BC"/>
</svg>
