<svg width="24" height="25" viewBox="0 0 24 25" fill="none" xmlns="http://www.w3.org/2000/svg">
<g id="Iconly/Light-Outline/Calendar">
<g id="Calendar">
<path id="Fill 1" fill-rule="evenodd" clip-rule="evenodd" d="M20.6665 10.5078H2.84253C2.42853 10.5078 2.09253 10.1718 2.09253 9.75781C2.09253 9.34381 2.42853 9.00781 2.84253 9.00781H20.6665C21.0805 9.00781 21.4165 9.34381 21.4165 9.75781C21.4165 10.1718 21.0805 10.5078 20.6665 10.5078Z" fill="#434343"/>
<path id="Fill 3" fill-rule="evenodd" clip-rule="evenodd" d="M16.2011 14.4102C15.7871 14.4102 15.4471 14.0742 15.4471 13.6602C15.4471 13.2462 15.7781 12.9102 16.1921 12.9102H16.2011C16.6151 12.9102 16.9511 13.2462 16.9511 13.6602C16.9511 14.0742 16.6151 14.4102 16.2011 14.4102Z" fill="#434343"/>
<path id="Fill 5" fill-rule="evenodd" clip-rule="evenodd" d="M11.7636 14.4102C11.3496 14.4102 11.0096 14.0742 11.0096 13.6602C11.0096 13.2462 11.3406 12.9102 11.7546 12.9102H11.7636C12.1776 12.9102 12.5136 13.2462 12.5136 13.6602C12.5136 14.0742 12.1776 14.4102 11.7636 14.4102Z" fill="#434343"/>
<path id="Fill 7" fill-rule="evenodd" clip-rule="evenodd" d="M7.31689 14.4102C6.90289 14.4102 6.56189 14.0742 6.56189 13.6602C6.56189 13.2462 6.89389 12.9102 7.30789 12.9102H7.31689C7.73089 12.9102 8.06689 13.2462 8.06689 13.6602C8.06689 14.0742 7.73089 14.4102 7.31689 14.4102Z" fill="#434343"/>
<path id="Fill 9" fill-rule="evenodd" clip-rule="evenodd" d="M16.2011 18.2969C15.7871 18.2969 15.4471 17.9609 15.4471 17.5469C15.4471 17.1329 15.7781 16.7969 16.1921 16.7969H16.2011C16.6151 16.7969 16.9511 17.1329 16.9511 17.5469C16.9511 17.9609 16.6151 18.2969 16.2011 18.2969Z" fill="#434343"/>
<path id="Fill 11" fill-rule="evenodd" clip-rule="evenodd" d="M11.7636 18.2969C11.3496 18.2969 11.0096 17.9609 11.0096 17.5469C11.0096 17.1329 11.3406 16.7969 11.7546 16.7969H11.7636C12.1776 16.7969 12.5136 17.1329 12.5136 17.5469C12.5136 17.9609 12.1776 18.2969 11.7636 18.2969Z" fill="#434343"/>
<path id="Fill 13" fill-rule="evenodd" clip-rule="evenodd" d="M7.31689 18.2969C6.90289 18.2969 6.56189 17.9609 6.56189 17.5469C6.56189 17.1329 6.89389 16.7969 7.30789 16.7969H7.31689C7.73089 16.7969 8.06689 17.1329 8.06689 17.5469C8.06689 17.9609 7.73089 18.2969 7.31689 18.2969Z" fill="#434343"/>
<path id="Fill 15" fill-rule="evenodd" clip-rule="evenodd" d="M15.7935 6.39256C15.3795 6.39256 15.0435 6.05656 15.0435 5.64256V2.35156C15.0435 1.93756 15.3795 1.60156 15.7935 1.60156C16.2075 1.60156 16.5435 1.93756 16.5435 2.35156V5.64256C16.5435 6.05656 16.2075 6.39256 15.7935 6.39256Z" fill="#434343"/>
<path id="Fill 17" fill-rule="evenodd" clip-rule="evenodd" d="M7.71533 6.39256C7.30133 6.39256 6.96533 6.05656 6.96533 5.64256V2.35156C6.96533 1.93756 7.30133 1.60156 7.71533 1.60156C8.12933 1.60156 8.46533 1.93756 8.46533 2.35156V5.64256C8.46533 6.05656 8.12933 6.39256 7.71533 6.39256Z" fill="#434343"/>
<g id="Group 21">
<mask id="mask0_1660_1545" style="mask-type:alpha" maskUnits="userSpaceOnUse" x="2" y="3" width="20" height="21">
<path id="Clip 20" fill-rule="evenodd" clip-rule="evenodd" d="M2 3.17969H21.5V23.1006H2V3.17969Z" fill="white"/>
</mask>
<g mask="url(#mask0_1660_1545)">
<path id="Fill 19" fill-rule="evenodd" clip-rule="evenodd" d="M7.521 4.67969C4.928 4.67969 3.5 6.06269 3.5 8.57369V17.6227C3.5 20.1887 4.928 21.6007 7.521 21.6007H15.979C18.572 21.6007 20 20.2147 20 17.6987V8.57369C20.004 7.33869 19.672 6.37869 19.013 5.71869C18.335 5.03869 17.29 4.67969 15.988 4.67969H7.521ZM15.979 23.1007H7.521C4.116 23.1007 2 21.0017 2 17.6227V8.57369C2 5.24569 4.116 3.17969 7.521 3.17969H15.988C17.697 3.17969 19.11 3.69169 20.075 4.65869C21.012 5.59969 21.505 6.95269 21.5 8.57569V17.6987C21.5 21.0307 19.384 23.1007 15.979 23.1007Z" fill="#434343"/>
</g>
</g>
</g>
</g>
</svg>
