<svg width="41" height="41" viewBox="0 0 41 41" fill="none" xmlns="http://www.w3.org/2000/svg">
<circle cx="20.9688" cy="20.9688" r="20" fill="url(#paint0_linear_2967_6188)"/>
<ellipse cx="20.703" cy="20.9688" rx="12.3788" ry="12.5" fill="#5606FF"/>
<path d="M16.7573 25.7617H13.8689C13.7731 25.7617 13.6813 25.7233 13.6136 25.6549C13.5459 25.5866 13.5078 25.4938 13.5078 25.3971V21.2011C13.5078 20.4982 14.0776 19.9284 14.7805 19.9284H15.8456C16.5485 19.9284 17.1183 20.4982 17.1183 21.2011V25.3971C17.1183 25.4938 17.0803 25.5866 17.0126 25.6549C16.9448 25.7233 16.853 25.7617 16.7573 25.7617Z" fill="white"/>
<path d="M22.1459 25.7617H19.2575C19.1618 25.7617 19.0699 25.7233 19.0022 25.6549C18.9345 25.5866 18.8965 25.4938 18.8965 25.3971V15.3678C18.8965 14.6649 19.4663 14.0951 20.1692 14.0951H21.2342C21.9372 14.0951 22.507 14.6649 22.507 15.3678V25.3971C22.507 25.4938 22.4689 25.5866 22.4012 25.6549C22.3335 25.7233 22.2417 25.7617 22.1459 25.7617Z" fill="white"/>
<path d="M27.7944 25.7617H24.906C24.8102 25.7617 24.7184 25.7233 24.6507 25.6549C24.583 25.5866 24.5449 25.4938 24.5449 25.3971V18.2844C24.5449 17.5815 25.1147 17.0117 25.8176 17.0117H26.8827C27.5856 17.0117 28.1554 17.5815 28.1554 18.2844V25.3971C28.1554 25.4938 28.1174 25.5866 28.0497 25.6549C27.982 25.7233 27.8901 25.7617 27.7944 25.7617Z" fill="white"/>
<defs>
<linearGradient id="paint0_linear_2967_6188" x1="36.4688" y1="0.968751" x2="20.9688" y2="40.9687" gradientUnits="userSpaceOnUse">
<stop stop-color="#AF89FF"/>
<stop offset="1" stop-color="#E9DFFF"/>
</linearGradient>
</defs>
</svg>
