<svg width="21" height="20" viewBox="0 0 21 20" fill="none" xmlns="http://www.w3.org/2000/svg">
<g clip-path="url(#clip0_2584_2437)">
<path d="M16.6364 10.7903C16.4177 10.7903 16.208 10.8772 16.0533 11.0318C15.8987 11.1865 15.8118 11.3962 15.8118 11.6149V11.9283L14.5913 10.7078C14.1603 10.2803 13.5779 10.0403 12.9708 10.0403C12.3638 10.0403 11.7813 10.2803 11.3504 10.7078L10.7731 11.2851L8.72793 9.2399C8.29096 8.82395 7.71077 8.59195 7.10747 8.59195C6.50418 8.59195 5.92398 8.82395 5.48701 9.2399L4.26651 10.4604V5.8423C4.26651 5.62358 4.35339 5.41383 4.50805 5.25917C4.6627 5.10452 4.87246 5.01763 5.09117 5.01763H10.8638C11.0825 5.01763 11.2923 4.93075 11.4469 4.7761C11.6016 4.62144 11.6885 4.41169 11.6885 4.19297C11.6885 3.97426 11.6016 3.7645 11.4469 3.60985C11.2923 3.45519 11.0825 3.36831 10.8638 3.36831H5.09117C4.43503 3.36831 3.80576 3.62896 3.3418 4.09292C2.87784 4.55689 2.61719 5.18615 2.61719 5.8423V15.7382C2.61719 16.3944 2.87784 17.0236 3.3418 17.4876C3.80576 17.9516 4.43503 18.2122 5.09117 18.2122H14.9871C15.6433 18.2122 16.2725 17.9516 16.7365 17.4876C17.2004 17.0236 17.4611 16.3944 17.4611 15.7382V11.6149C17.4611 11.3962 17.3742 11.1865 17.2196 11.0318C17.0649 10.8772 16.8552 10.7903 16.6364 10.7903ZM5.09117 16.5629C4.87246 16.5629 4.6627 16.476 4.50805 16.3214C4.35339 16.1667 4.26651 15.957 4.26651 15.7382V12.7942L6.65803 10.4027C6.77918 10.2872 6.94012 10.2228 7.10747 10.2228C7.27482 10.2228 7.43576 10.2872 7.55691 10.4027L10.1711 13.0169L13.7171 16.5629H5.09117ZM15.8118 15.7382C15.8106 15.8961 15.7585 16.0494 15.6633 16.1753L11.9441 12.4396L12.5214 11.8623C12.5805 11.802 12.6511 11.754 12.7289 11.7213C12.8068 11.6886 12.8905 11.6717 12.9749 11.6717C13.0594 11.6717 13.143 11.6886 13.2209 11.7213C13.2988 11.754 13.3694 11.802 13.4285 11.8623L15.8118 14.2621V15.7382ZM19.6959 3.60746L17.2219 1.13348C17.1435 1.0584 17.051 0.999548 16.9498 0.960298C16.749 0.877817 16.5238 0.877817 16.3231 0.960298C16.2218 0.999548 16.1294 1.0584 16.0509 1.13348L13.5769 3.60746C13.4217 3.76275 13.3344 3.97336 13.3344 4.19297C13.3344 4.41258 13.4217 4.6232 13.5769 4.77848C13.7322 4.93377 13.9428 5.02101 14.1625 5.02101C14.3821 5.02101 14.5927 4.93377 14.748 4.77848L15.8118 3.70642V8.31628C15.8118 8.535 15.8987 8.74475 16.0533 8.89941C16.208 9.05406 16.4177 9.14094 16.6364 9.14094C16.8552 9.14094 17.0649 9.05406 17.2196 8.89941C17.3742 8.74475 17.4611 8.535 17.4611 8.31628V3.70642L18.5249 4.77848C18.6016 4.85578 18.6928 4.91713 18.7933 4.95899C18.8938 5.00086 19.0016 5.02242 19.1104 5.02242C19.2193 5.02242 19.3271 5.00086 19.4276 4.95899C19.5281 4.91713 19.6193 4.85578 19.6959 4.77848C19.7732 4.70182 19.8346 4.61061 19.8764 4.51012C19.9183 4.40963 19.9399 4.30184 19.9399 4.19297C19.9399 4.08411 19.9183 3.97632 19.8764 3.87583C19.8346 3.77533 19.7732 3.68413 19.6959 3.60746Z" fill="black"/>
</g>
<defs>
<clipPath id="clip0_2584_2437">
<rect width="19.7919" height="19.7919" fill="white" transform="translate(0.96875 0.0703125)"/>
</clipPath>
</defs>
</svg>
