<svg width="21" height="22" viewBox="0 0 21 22" fill="none" xmlns="http://www.w3.org/2000/svg">
<g id="ArrowRise-s">
<path id="Vector 647 (Stroke)" fill-rule="evenodd" clip-rule="evenodd" d="M10.7267 8.11004L17.7617 6.07031L16.0107 13.1826L13.8263 11.0856L10.3028 14.7559C10.1832 14.8805 10.0179 14.951 9.84518 14.951C9.67245 14.951 9.5072 14.8805 9.38758 14.7559L6.80038 12.0609L2.99525 16.0246C2.75264 16.2773 2.35108 16.2855 2.09836 16.0429C1.84563 15.8003 1.83744 15.3987 2.08005 15.146L6.34278 10.7057C6.46239 10.5811 6.62765 10.5106 6.80038 10.5106C6.9731 10.5106 7.13836 10.5811 7.25798 10.7057L9.84518 13.4007L12.9111 10.207L10.7267 8.11004Z" fill="#6CD690"/>
</g>
</svg>
