<svg width="32" height="32" viewBox="0 0 32 32" fill="none" xmlns="http://www.w3.org/2000/svg">
<path fill-rule="evenodd" clip-rule="evenodd" d="M15.9993 29.3346C8.63935 29.3346 2.66602 23.3746 2.66602 16.0013C2.66602 8.6413 8.63935 2.66797 15.9993 2.66797C23.3727 2.66797 29.3327 8.6413 29.3327 16.0013C29.3327 23.3746 23.3727 29.3346 15.9993 29.3346ZM20.2527 20.948C20.4127 21.0413 20.586 21.0946 20.7727 21.0946C21.106 21.0946 21.4393 20.9213 21.626 20.6013C21.906 20.1346 21.7593 19.5213 21.2793 19.228L16.5327 16.4013V10.2413C16.5327 9.6813 16.0793 9.2413 15.5327 9.2413C14.986 9.2413 14.5327 9.6813 14.5327 10.2413V16.9746C14.5327 17.3213 14.7193 17.6413 15.026 17.828L20.2527 20.948Z" fill="#0066BC"/>
</svg>
